<?xml version="1.0" standalone="no"?><!DOCTYPE svg PUBLIC "-//W3C//DTD SVG 1.1//EN" "http://www.w3.org/Graphics/SVG/1.1/DTD/svg11.dtd"><svg t="1751003596096" class="icon" viewBox="0 0 1024 1024" version="1.1" xmlns="http://www.w3.org/2000/svg" p-id="12885" xmlns:xlink="http://www.w3.org/1999/xlink" width="200" height="200"><path d="M783.5 783.5c-69.5 69.5-165.5 112.5-271.5 112.5s-202-43-271.5-112.5-112.5-165.5-112.5-271.5 43-202 112.5-271.5 165.5-112.5 271.5-112.5 202 43 271.5 112.5 112.5 165.5 112.5 271.5-43 202-112.5 271.5z" fill="#4FC3F7" p-id="12886"></path><path d="M587.5 135.5c75.5 15 143.5 52.5 196 105 60.5 60.5 101 141 110.5 231-0.5 2.5-0.5 5-1 7.5l-46-41c-1-1-2.5-2.5-4-3.5-4 4-7.5 8-10 10.5l-50.5 56.5 1-72.5c0-11 0.5-22.5 0.5-33.5v-2-2c-0.5-1-2-3-2.5-4-4-5-10-9.5-14.5-13.5-1-1-2.5-2-3.5-3l-40 10.5c-9.5 2.5-19 4-28.5 6.5-13 3-24.5-2-32-11.5-2.5-2.5-4.5-5.5-6-8.5-1-2-2.5-4-3.5-5.5-2-3-4-6.5-6-10-0.5 5.5-1.5 12.5-1 15.5 0.5 0.5 1 1.5 1.5 2 5 7 11 15 13.5 23.5 2.5 0.5 5.5 0.5 7 0.5l81 6.5-68.5 40c-2 1-4 2.5-6 3.5l-24 12-4 2c-6 3-13 9.5-17.5 14.5-8 8.5-15.5 19-21 29l-13 23-2-1c-1.5 2-3 3.5-4.5 5.5-5.5 7-12.5 14-19.5 20l-21.5 16-3.5-4c-12 4.5-25 8-34 10-14 3.5-33.5 7.5-49 6h-1l-3-0.5c-19.5-4-24.5-22.5-28.5-37.5-5-18.5-9-50-6.5-69 1-7.5 3.5-15 5.5-22.5 2-6 6-18.5 5.5-25-0.5-7.5 0.5-15.5 2-23 1-4.5 1.5-9 3-13.5 1.5-5.5 4-10.5 7.5-14.5l-1-1c-5.5-2.5-9.5-6.5-12-11-3.5-3.5-7-6-12.5-7.5h-1c-23-4.5-30-24.5-34-43 0-1-0.5-2.5-0.5-3.5l-0.5-2.5v-2c-0.5-15 10.5-35 17.5-47.5l0.5-0.5c5.5-10 33.5-31 44-39.5l2.5-2 3-1.5c9.5-4.5 21.5-10.5 32-10 15 1 16.5 25.5 27.5 35 18.5 9.5 41 20 50.5 37.5l14.5 16.5c2.5 5-0.5-10.5 6-8l-27-46.5 6-4.5c-1-0.5-2-1-2.5-1.5l-22-11 8-17-3-14 10.5-2 4-9 19 5c7-1 14.5-1 21.5-1.5 4 0 12-0.5 19.5-1.5l-35-40.5c2.5 0 5 0 7.5 0.5l-1.5-2z m-21 141c4 1.5 27.5-3 31.5-2.5h2c1.5 0 5-2.5 6.5-3 1.5-1 3.5-2.5 4.5-4v-0.5c0-1.5-0.5-2.5-1.5-4-1-1-2.5-2-4.5-2h-0.5l-37.5 16h-0.5z" fill="#558B2F" p-id="12887"></path><path d="M199 580c0.5-9.5-2-19-3.5-27.5-3-17-6-36.5 2.5-52.5l1.5-3c12.5-23 30.5-51 57.5-59 8.5-2.5 17-3 25 0 8.5 3 16 9 20 17 11 21 2.5 47.5-7 68-8.5 18-13 31.5-15.5 51-2 13-4.5 24-9 36.5-14 36 1.5 89.5 11.5 125 7.5 25.5 10 67.5 13.5 95-24-16-46-35-65.5-56.5-87.5-104-97.5-181.5-102-242.5l65.5 43.5c1 1.5 3 3.5 5 5.5l0.5-0.5z" fill="#C97900" p-id="12888"></path><path d="M578.5 715.5h0.5c-2-0.5-2.5-1-0.5 0z" fill="#558B2F" p-id="12889"></path><path d="M783.5 783.5c-69.5 69.5-165.5 112.5-271.5 112.5V128c106 0 202 43 271.5 112.5s112.5 165.5 112.5 271.5-43 202-112.5 271.5z" fill="#4BB3E2" p-id="12890"></path><path d="M587.5 135.5c75.5 15 143.5 52.5 196 105 60.5 60.5 101 141 110.5 231-0.5 2.5-0.5 5-1 7.5l-46-41c-1-1-2.5-2.5-4-3.5-4 4-7.5 8-10 10.5l-50.5 56.5 1-72.5c0-11 0.5-22.5 0.5-33.5v-2-2c-0.5-1-2-3-2.5-4-4-5-10-9.5-14.5-13.5-1-1-2.5-2-3.5-3l-40 10.5c-9.5 2.5-19 4-28.5 6.5-13 3-24.5-2-32-11.5-2.5-2.5-4.5-5.5-6-8.5-1-2-2.5-4-3.5-5.5-2-3-4-6.5-6-10-0.5 5.5-1.5 12.5-1 15.5 0.5 0.5 1 1.5 1.5 2 5 7 11 15 13.5 23.5 2.5 0.5 5.5 0.5 7 0.5l81 6.5-68.5 40c-2 1-4 2.5-6 3.5l-24 12-4 2c-6 3-13 9.5-17.5 14.5-8 8.5-15.5 19-21 29l-13 23-2-1c-1.5 2-3 3.5-4.5 5.5-5.5 7-12.5 14-19.5 20l-21.5 16-3.5-4c-11.5 4-23.5 7.5-32.5 10V235.5c18 9.5 40.5 20 49.5 36.5l14.5 16.5c2.5 5-0.5-10.5 6-8l-27-46.5 6-4.5c-1-0.5-2-1-2.5-1.5l-22-11 8-17-3-14 10.5-2 4-9 19 5c7-1 14.5-1 21.5-1.5 4 0 12-0.5 19.5-1.5l-35-40.5c2.5 0 5 0 7.5 0.5l-1-1.5z m-21 141c4 1.5 27.5-3 31.5-2.5h2c1.5 0 5-2.5 6.5-3 1.5-1 3.5-2.5 4.5-4v-0.5c0-1.5-0.5-2.5-1.5-4-1-1-2.5-2-4.5-2h-0.5l-37.5 16h-0.5zM578.5 715.5h0.5c-2-0.5-2.5-1-0.5 0z" fill="#50802E" p-id="12891"></path><path d="M624 640v16c0 10.5-50 26-53 46.5l5 3c25 14.5-97 56.5-2 79.5 4 1 46 0.5 50-0.5 6.5-64-26.5-36.5 16-64 4-2.5-2.5-15 1.5-14.5 44-67.5 25-118.5 6-115-6 1-23.5 14.5-23.5 49.5v-0.5z" fill="#50802E" p-id="12892"></path></svg>